<svg xmlns="http://www.w3.org/2000/svg" xmlns:xlink="http://www.w3.org/1999/xlink" width="1080" zoomAndPan="magnify" viewBox="0 0 810 1012.49997" height="1350" preserveAspectRatio="xMidYMid meet" version="1.0"><defs><clipPath id="3deaa783e2"><path d="M 0.199219 0 L 809.800781 0 L 809.800781 1012 L 0.199219 1012 Z M 0.199219 0 " clip-rule="nonzero"/></clipPath><clipPath id="2679e69cfa"><path d="M 139.492188 240.492188 L 670 240.492188 L 670 771.230469 L 139.492188 771.230469 Z M 139.492188 240.492188 " clip-rule="nonzero"/></clipPath></defs><g clip-path="url(#3deaa783e2)"><path fill="#ffffff" d="M 0.199219 0 L 809.800781 0 L 809.800781 1012 L 0.199219 1012 Z M 0.199219 0 " fill-opacity="1" fill-rule="nonzero"/><path fill="#ffffff" d="M 0.199219 0 L 809.800781 0 L 809.800781 1012 L 0.199219 1012 Z M 0.199219 0 " fill-opacity="1" fill-rule="nonzero"/></g><g clip-path="url(#2679e69cfa)"><path fill="#000000" d="M 425.21875 254.59375 C 423.808594 254.0625 422.046875 253.359375 419.929688 252.832031 C 417.816406 252.300781 416.230469 251.773438 415.347656 251.242188 C 414.289062 250.714844 413.9375 250.011719 413.9375 248.953125 C 413.9375 247.894531 414.46875 247.191406 415.347656 246.660156 C 416.230469 246.132812 417.640625 245.957031 419.578125 245.957031 C 422.222656 246.132812 424.867188 247.011719 427.335938 248.601562 L 429.625 243.664062 C 428.390625 242.78125 426.804688 242.078125 425.21875 241.550781 C 423.457031 241.019531 421.695312 240.667969 419.929688 240.667969 C 417.289062 240.492188 414.996094 240.84375 413.234375 241.550781 C 411.292969 242.253906 409.882812 243.3125 409.003906 244.546875 C 407.945312 245.78125 407.417969 247.367188 407.417969 248.953125 C 407.238281 250.890625 407.769531 252.476562 408.648438 253.710938 C 409.53125 254.945312 410.765625 255.828125 412.175781 256.355469 C 413.585938 256.882812 415.347656 257.589844 417.464844 258.117188 C 418.875 258.472656 419.929688 258.824219 420.8125 259.175781 C 421.695312 259.527344 422.222656 259.882812 422.75 260.410156 C 423.28125 260.9375 423.457031 261.46875 423.457031 262.171875 C 423.457031 263.054688 422.929688 263.757812 422.046875 264.289062 C 421.164062 264.816406 419.753906 264.992188 417.816406 264.992188 C 416.054688 264.816406 414.46875 264.464844 412.703125 263.933594 C 411.117188 263.230469 409.53125 262.523438 408.472656 261.46875 L 406.007812 266.402344 C 407.238281 267.460938 408.828125 268.34375 410.941406 269.046875 C 413.058594 269.75 415.171875 270.28125 417.464844 270.28125 C 420.109375 270.457031 422.398438 270.105469 424.160156 269.398438 C 426.101562 268.695312 427.511719 267.636719 428.390625 266.402344 C 429.273438 265.167969 429.976562 263.582031 429.976562 261.996094 C 430.15625 260.058594 429.625 258.472656 428.746094 257.414062 C 427.863281 256.179688 426.628906 255.296875 425.21875 254.59375 Z M 463.996094 258.824219 L 451.308594 256.179688 L 453.597656 245.074219 L 447.078125 243.664062 L 441.082031 271.867188 L 447.605469 273.277344 L 450.074219 261.820312 L 462.765625 264.464844 L 460.296875 275.921875 L 466.816406 277.332031 L 472.8125 249.128906 L 466.289062 247.71875 Z M 493.082031 286.851562 C 495.902344 287.90625 498.546875 288.4375 501.191406 288.082031 C 503.835938 287.730469 506.300781 286.851562 508.417969 285.261719 C 510.53125 283.675781 512.117188 281.5625 513.175781 278.917969 C 514.234375 276.273438 514.585938 273.628906 514.058594 271.160156 C 513.527344 268.695312 512.472656 266.226562 510.882812 264.113281 C 509.121094 261.996094 506.832031 260.410156 504.1875 259.351562 C 501.367188 258.292969 498.722656 257.765625 495.902344 258.117188 C 493.082031 258.472656 490.789062 259.351562 488.675781 260.9375 C 486.558594 262.523438 484.972656 264.640625 483.914062 267.285156 C 482.859375 269.929688 482.507812 272.570312 483.035156 275.039062 C 483.386719 277.683594 484.445312 279.976562 486.207031 282.089844 C 487.96875 284.207031 490.261719 285.792969 493.082031 286.851562 Z M 490.261719 269.75 C 490.964844 268.164062 491.847656 266.753906 493.082031 265.699219 C 494.316406 264.640625 495.726562 264.113281 497.3125 263.933594 C 498.898438 263.757812 500.484375 263.933594 502.070312 264.640625 C 503.65625 265.34375 504.890625 266.226562 505.949219 267.460938 C 507.007812 268.695312 507.535156 270.105469 507.710938 271.691406 C 507.886719 273.277344 507.710938 274.863281 507.007812 276.625 C 506.300781 278.210938 505.421875 279.621094 504.1875 280.679688 C 502.953125 281.738281 501.542969 282.265625 499.957031 282.441406 C 498.371094 282.621094 496.785156 282.441406 495.195312 281.738281 C 493.609375 281.03125 492.375 280.152344 491.320312 278.917969 C 490.261719 277.683594 489.734375 276.273438 489.554688 274.6875 C 489.378906 273.101562 489.554688 271.339844 490.261719 269.75 Z M 545.082031 299.363281 C 546.84375 298.484375 548.078125 297.25 549.3125 295.488281 C 550.367188 293.722656 550.898438 291.785156 550.898438 290.023438 C 550.898438 288.082031 550.191406 286.320312 549.132812 284.734375 C 547.902344 282.972656 546.3125 281.5625 544.199219 280.152344 L 533.625 273.628906 L 518.464844 298.128906 L 524.105469 301.65625 L 528.335938 294.957031 L 533.269531 297.953125 C 535.386719 299.363281 537.5 300.070312 539.617188 300.421875 C 541.554688 300.421875 543.316406 300.246094 545.082031 299.363281 Z M 535.738281 293.019531 L 531.15625 290.199219 L 536.441406 281.738281 L 541.027344 284.558594 C 542.789062 285.617188 543.847656 286.851562 544.199219 288.082031 C 544.550781 289.316406 544.375 290.726562 543.671875 292.136719 C 542.789062 293.546875 541.730469 294.253906 540.496094 294.429688 C 538.910156 294.429688 537.324219 294.078125 535.738281 293.019531 Z M 581.390625 323.160156 L 578.921875 345.546875 L 582.800781 349.425781 L 603.25 329.328125 L 598.664062 324.570312 L 586.152344 336.734375 L 588.617188 314.347656 L 584.742188 310.46875 L 564.292969 330.738281 L 568.875 335.5 Z M 620.347656 376.570312 C 622.636719 374.984375 624.398438 373.042969 625.457031 370.578125 C 626.515625 368.109375 626.867188 365.640625 626.691406 362.996094 C 626.339844 360.351562 625.457031 357.707031 623.695312 355.242188 C 621.933594 352.773438 619.992188 351.011719 617.527344 349.777344 C 615.058594 348.542969 612.589844 348.015625 609.945312 348.191406 C 607.300781 348.367188 604.835938 349.246094 602.542969 350.835938 C 600.25 352.421875 598.488281 354.359375 597.429688 356.828125 C 596.375 359.296875 596.019531 361.761719 596.199219 364.40625 C 596.550781 367.050781 597.429688 369.695312 599.195312 372.164062 C 600.957031 374.628906 602.894531 376.394531 605.363281 377.625 C 607.832031 378.859375 610.300781 379.390625 612.941406 379.214844 C 615.410156 379.035156 617.878906 378.15625 620.347656 376.570312 Z M 607.300781 371.988281 C 605.890625 371.28125 604.660156 370.222656 603.777344 368.8125 C 602.894531 367.402344 602.191406 365.992188 602.191406 364.40625 C 602.015625 362.820312 602.367188 361.410156 603.070312 359.824219 C 603.777344 358.238281 604.835938 357.179688 606.246094 356.121094 C 607.65625 355.066406 609.242188 354.535156 610.828125 354.359375 C 612.414062 354.183594 614 354.535156 615.410156 355.242188 C 616.820312 355.945312 618.054688 357.003906 618.9375 358.414062 C 619.816406 359.824219 620.523438 361.234375 620.523438 362.820312 C 620.699219 364.40625 620.347656 365.816406 619.640625 367.402344 C 618.9375 368.988281 617.878906 370.046875 616.46875 371.105469 C 615.058594 372.164062 613.472656 372.691406 611.886719 372.867188 C 610.300781 372.867188 608.710938 372.515625 607.300781 371.988281 Z M 619.640625 406.886719 L 640.089844 405.300781 L 624.753906 418.695312 L 627.574219 425.21875 L 657.714844 422.574219 L 655.246094 416.757812 L 633.917969 418.519531 L 650.136719 404.417969 L 647.667969 398.777344 L 626.339844 400.542969 L 642.378906 386.617188 L 639.734375 380.269531 L 616.996094 400.1875 Z M 655.597656 462.058594 C 654.542969 461.175781 653.132812 461 651.722656 461.175781 C 650.3125 461.351562 649.078125 462.058594 648.195312 463.292969 C 647.316406 464.351562 647.136719 465.761719 647.316406 467.171875 C 647.492188 468.582031 648.195312 469.636719 649.429688 470.519531 C 650.664062 471.402344 651.898438 471.578125 653.308594 471.402344 C 654.71875 471.222656 655.953125 470.519531 656.65625 469.285156 C 657.363281 468.050781 657.714844 466.816406 657.539062 465.40625 C 657.363281 463.996094 656.65625 462.761719 655.597656 462.058594 Z M 669.171875 511.058594 C 668.46875 509.121094 667.410156 507.886719 666.175781 506.832031 C 664.941406 505.949219 663.355469 505.421875 661.769531 505.242188 C 659.828125 505.242188 658.242188 505.597656 657.1875 506.476562 C 655.953125 507.359375 655.070312 508.59375 654.542969 510.003906 C 654.011719 511.414062 653.308594 513.175781 652.777344 515.289062 C 652.425781 516.699219 652.074219 517.757812 651.722656 518.640625 C 651.367188 519.519531 651.015625 520.050781 650.488281 520.578125 C 649.957031 521.109375 649.429688 521.285156 648.726562 521.285156 C 647.84375 521.285156 647.136719 520.753906 646.609375 519.875 C 646.082031 518.992188 645.90625 517.582031 645.90625 515.644531 C 645.90625 513.878906 646.257812 512.292969 646.960938 510.53125 C 647.667969 508.945312 648.371094 507.359375 649.253906 506.300781 L 644.316406 503.832031 C 643.261719 505.066406 642.378906 506.832031 641.675781 508.769531 C 640.96875 510.882812 640.617188 513 640.441406 515.289062 C 640.265625 517.933594 640.617188 520.226562 641.320312 521.988281 C 642.027344 523.929688 643.085938 525.339844 644.316406 526.21875 C 645.550781 527.101562 647.136719 527.628906 648.726562 527.804688 C 650.664062 527.804688 652.25 527.453125 653.308594 526.570312 C 654.542969 525.691406 655.421875 524.457031 655.953125 523.046875 C 656.480469 521.636719 657.1875 519.875 657.714844 517.757812 C 658.242188 515.644531 658.773438 514.058594 659.300781 513.175781 C 659.828125 512.292969 660.535156 511.765625 661.59375 511.765625 C 662.648438 511.765625 663.355469 512.292969 663.882812 513.175781 C 664.414062 514.058594 664.765625 515.46875 664.589844 517.40625 C 664.414062 520.050781 663.53125 522.695312 661.945312 525.339844 L 666.878906 527.628906 C 667.761719 526.394531 668.464844 524.808594 668.996094 523.046875 C 669.523438 521.285156 669.875 519.519531 669.875 517.757812 C 670.054688 515.113281 669.875 512.824219 669.171875 511.058594 Z M 637.796875 545.960938 L 649.429688 548.253906 L 646.785156 561.121094 L 635.152344 558.828125 L 633.917969 565.351562 L 662.121094 570.992188 L 663.355469 564.46875 L 652.25 562.175781 L 654.894531 549.308594 L 666 551.601562 L 667.234375 545.078125 L 639.03125 539.4375 Z M 650.488281 586.679688 C 648.902344 584.5625 646.785156 582.976562 644.140625 582.097656 C 641.5 581.214844 638.855469 580.863281 636.386719 581.214844 C 633.917969 581.566406 631.449219 582.800781 629.335938 584.5625 C 627.21875 586.328125 625.632812 588.617188 624.578125 591.4375 C 623.519531 594.257812 623.167969 596.902344 623.519531 599.722656 C 623.871094 602.542969 624.753906 604.835938 626.339844 606.949219 C 627.925781 609.066406 630.039062 610.652344 632.683594 611.707031 C 635.328125 612.765625 637.972656 612.941406 640.441406 612.589844 C 642.90625 612.238281 645.375 611.003906 647.492188 609.242188 C 649.605469 607.476562 651.191406 605.1875 652.25 602.367188 C 653.308594 599.546875 653.660156 596.902344 653.308594 594.082031 C 652.957031 591.261719 652.074219 588.792969 650.488281 586.679688 Z M 646.960938 600.074219 C 646.257812 601.660156 645.375 602.894531 644.140625 603.953125 C 642.90625 605.011719 641.5 605.539062 639.910156 605.714844 C 638.324219 605.890625 636.738281 605.714844 634.976562 605.011719 C 633.390625 604.304688 631.980469 603.425781 630.921875 602.191406 C 629.863281 600.957031 629.335938 599.546875 628.984375 597.960938 C 628.808594 596.375 628.984375 594.785156 629.511719 593.199219 C 630.039062 591.613281 631.097656 590.378906 632.332031 589.324219 C 633.566406 588.265625 634.976562 587.738281 636.5625 587.558594 C 638.148438 587.382812 639.734375 587.558594 641.5 588.265625 C 643.085938 588.96875 644.496094 589.851562 645.550781 591.085938 C 646.609375 592.320312 647.136719 593.730469 647.492188 595.316406 C 647.667969 596.902344 647.492188 598.488281 646.960938 600.074219 Z M 610.121094 622.460938 L 616.996094 626.515625 L 614 631.449219 C 612.765625 633.566406 611.886719 635.679688 611.710938 637.796875 C 611.53125 639.910156 611.710938 641.675781 612.589844 643.4375 C 613.472656 645.199219 614.707031 646.433594 616.46875 647.667969 C 618.230469 648.722656 620.167969 649.253906 621.933594 649.253906 C 623.695312 649.253906 625.632812 648.546875 627.21875 647.3125 C 628.808594 646.082031 630.394531 644.492188 631.804688 642.203125 L 638.148438 631.449219 L 613.472656 616.644531 Z M 618.757812 634.09375 L 621.578125 629.511719 L 630.21875 634.625 L 627.398438 639.207031 C 626.339844 640.96875 625.28125 642.027344 623.871094 642.378906 C 622.636719 642.90625 621.226562 642.554688 619.816406 641.851562 C 618.40625 640.96875 617.703125 639.910156 617.527344 638.675781 C 617.347656 637.265625 617.703125 635.679688 618.757812 634.09375 Z M 576.632812 667.761719 L 588.972656 680.101562 L 566.410156 677.984375 L 562.53125 681.863281 L 582.800781 702.132812 L 587.382812 697.550781 L 575.046875 685.210938 L 597.429688 687.503906 L 601.308594 683.625 L 581.039062 663.355469 Z M 562.003906 701.429688 C 560.414062 699.136719 558.300781 697.375 556.007812 696.316406 C 553.542969 695.257812 551.074219 694.90625 548.429688 695.257812 C 545.785156 695.613281 543.140625 696.667969 540.671875 698.253906 C 538.207031 700.019531 536.445312 702.132812 535.210938 704.425781 C 533.976562 706.890625 533.445312 709.359375 533.625 712.003906 C 533.800781 714.648438 534.679688 717.117188 536.265625 719.40625 C 537.851562 721.699219 539.96875 723.460938 542.261719 724.519531 C 544.726562 725.578125 547.195312 725.929688 549.839844 725.578125 C 552.484375 725.222656 555.128906 724.167969 557.59375 722.578125 C 560.0625 720.992188 561.824219 718.703125 563.058594 716.410156 C 564.292969 713.941406 564.820312 711.476562 564.644531 708.832031 C 564.46875 706.1875 563.589844 703.71875 562.003906 701.429688 Z M 557.417969 714.472656 C 556.714844 715.882812 555.65625 717.117188 554.246094 717.996094 C 552.835938 719.054688 551.425781 719.582031 549.839844 719.761719 C 548.253906 719.9375 546.84375 719.582031 545.257812 718.878906 C 543.847656 718.171875 542.613281 717.117188 541.554688 715.707031 C 540.496094 714.296875 539.96875 712.710938 539.792969 711.121094 C 539.617188 709.535156 539.792969 707.949219 540.496094 706.539062 C 541.203125 705.128906 542.261719 703.894531 543.671875 703.015625 C 545.082031 702.132812 546.492188 701.429688 548.078125 701.25 C 549.664062 701.074219 551.074219 701.429688 552.660156 702.132812 C 554.070312 702.839844 555.304688 703.894531 556.363281 705.304688 C 557.417969 706.714844 557.949219 708.300781 558.125 709.890625 C 558.300781 711.476562 558.125 712.886719 557.417969 714.472656 Z M 505.773438 719.230469 L 507.710938 739.679688 L 494.140625 724.34375 L 487.617188 727.164062 L 490.613281 757.304688 L 496.429688 754.660156 L 494.316406 733.332031 L 508.59375 749.371094 L 514.234375 746.90625 L 512.292969 725.753906 L 526.394531 741.617188 L 532.742188 738.796875 L 512.292969 716.410156 Z M 449.898438 748.492188 C 448.664062 747.609375 447.429688 747.433594 446.019531 747.609375 C 444.609375 747.785156 443.550781 748.492188 442.667969 749.726562 C 441.789062 750.960938 441.613281 752.191406 441.789062 753.601562 C 441.964844 755.011719 442.667969 756.246094 443.902344 756.953125 C 445.136719 757.832031 446.371094 758.007812 447.78125 757.832031 C 449.191406 757.65625 450.25 756.953125 451.128906 755.71875 C 452.011719 754.660156 452.1875 753.25 452.011719 751.839844 C 451.660156 750.429688 450.953125 749.195312 449.898438 748.492188 Z M 392.960938 747.257812 C 393.84375 746.730469 395.253906 746.550781 397.191406 746.550781 C 398.957031 746.550781 400.542969 746.90625 402.304688 747.609375 C 404.066406 748.140625 405.476562 749.019531 406.710938 749.902344 L 409.179688 744.964844 C 407.945312 743.910156 406.183594 743.027344 404.066406 742.320312 C 401.953125 741.617188 399.835938 741.265625 397.546875 741.265625 C 394.902344 741.265625 392.609375 741.441406 390.847656 742.320312 C 388.910156 743.027344 387.5 744.085938 386.617188 745.496094 C 385.734375 746.90625 385.207031 748.316406 385.03125 749.902344 C 385.03125 751.839844 385.382812 753.425781 386.441406 754.484375 C 387.320312 755.71875 388.554688 756.421875 389.964844 757.128906 C 391.375 757.832031 393.140625 758.1875 395.253906 758.890625 C 397.371094 759.417969 398.957031 759.949219 399.835938 760.476562 C 400.894531 761.007812 401.421875 761.710938 401.246094 762.769531 C 401.246094 763.828125 400.71875 764.53125 399.835938 765.058594 C 398.957031 765.589844 397.546875 765.941406 395.605469 765.765625 C 392.960938 765.765625 390.320312 764.882812 387.675781 763.296875 L 385.382812 768.234375 C 386.617188 769.113281 388.203125 769.820312 389.964844 770.347656 C 391.730469 770.878906 393.492188 771.054688 395.253906 771.230469 C 397.898438 771.230469 400.191406 771.054688 401.953125 770.171875 C 403.714844 769.289062 405.125 768.410156 406.183594 767 C 407.0625 765.589844 407.59375 764.179688 407.769531 762.59375 C 407.769531 760.652344 407.417969 759.066406 406.359375 758.007812 C 405.476562 756.777344 404.242188 755.894531 402.832031 755.367188 C 401.421875 754.835938 399.660156 754.308594 397.546875 753.601562 C 396.136719 753.25 395.078125 752.898438 394.195312 752.546875 C 393.316406 752.191406 392.609375 751.839844 392.257812 751.3125 C 391.730469 750.78125 391.550781 750.253906 391.550781 749.546875 C 391.550781 748.492188 392.082031 747.785156 392.960938 747.257812 Z M 364.761719 750.429688 L 351.890625 747.960938 L 354.007812 736.328125 L 347.484375 735.09375 L 342.199219 763.296875 L 348.71875 764.53125 L 350.835938 753.425781 L 363.703125 755.894531 L 361.585938 767 L 368.109375 768.234375 L 373.398438 740.03125 L 366.875 738.796875 Z M 328.273438 730.6875 C 326.511719 728.574219 324.21875 727.164062 321.398438 726.105469 C 318.578125 725.046875 315.933594 724.695312 313.113281 725.046875 C 310.46875 725.398438 308.003906 726.457031 305.886719 728.042969 C 303.773438 729.628906 302.183594 731.746094 301.304688 734.390625 C 300.421875 737.035156 300.070312 739.679688 300.597656 742.320312 C 301.128906 744.964844 302.183594 747.257812 303.949219 749.371094 C 305.710938 751.488281 308.003906 752.898438 310.824219 753.957031 C 313.644531 755.011719 316.285156 755.367188 319.105469 755.011719 C 321.925781 754.660156 324.21875 753.601562 326.332031 752.015625 C 328.449219 750.429688 329.859375 748.316406 330.917969 745.671875 C 331.972656 743.027344 332.152344 740.382812 331.796875 737.738281 C 331.445312 735.09375 330.035156 732.804688 328.273438 730.6875 Z M 324.570312 743.203125 C 323.867188 744.789062 322.984375 746.199219 321.75 747.257812 C 320.515625 748.316406 319.105469 748.84375 317.519531 749.195312 C 315.933594 749.371094 314.347656 749.195312 312.761719 748.667969 C 311.175781 748.140625 309.941406 747.082031 308.882812 746.023438 C 307.824219 744.789062 307.296875 743.378906 306.945312 741.792969 C 306.769531 740.207031 306.945312 738.621094 307.472656 736.859375 C 308.003906 735.09375 309.058594 733.859375 310.292969 732.804688 C 311.527344 731.746094 312.9375 731.21875 314.523438 730.863281 C 316.109375 730.6875 317.695312 730.863281 319.285156 731.394531 C 320.871094 731.921875 322.105469 732.980469 323.160156 734.039062 C 324.21875 735.269531 324.746094 736.679688 325.101562 738.269531 C 325.453125 739.855469 325.277344 741.441406 324.570312 743.203125 Z M 286.144531 718.878906 L 281.210938 715.882812 C 279.09375 714.648438 276.980469 713.765625 274.863281 713.589844 C 272.75 713.414062 270.984375 713.589844 269.222656 714.472656 C 267.636719 715.351562 266.226562 716.585938 265.167969 718.527344 C 264.113281 720.289062 263.582031 722.226562 263.757812 724.167969 C 263.757812 726.105469 264.464844 727.867188 265.699219 729.453125 C 266.933594 731.21875 268.519531 732.628906 270.808594 733.859375 L 281.5625 740.207031 L 296.015625 715.351562 L 290.199219 712.003906 Z M 278.214844 732.273438 L 273.453125 729.453125 C 271.691406 728.398438 270.632812 727.339844 270.105469 726.105469 C 269.574219 724.871094 269.753906 723.460938 270.632812 722.050781 C 271.515625 720.640625 272.574219 719.9375 273.804688 719.582031 C 275.214844 719.40625 276.625 719.761719 278.390625 720.816406 L 283.148438 723.636719 Z M 232.382812 691.558594 L 234.324219 668.996094 L 230.445312 665.117188 L 210.351562 685.742188 L 215.109375 690.324219 L 227.273438 677.808594 L 225.332031 700.195312 L 229.210938 704.070312 L 249.304688 683.449219 L 244.546875 678.867188 Z M 215.640625 658.59375 C 216.695312 656.128906 217.046875 653.660156 216.695312 650.839844 C 216.34375 648.195312 215.285156 645.550781 213.523438 643.082031 C 211.761719 640.617188 209.644531 638.855469 207.179688 637.621094 C 204.710938 636.386719 202.242188 636.035156 199.597656 636.210938 C 196.953125 636.386719 194.488281 637.265625 192.195312 639.03125 C 189.902344 640.617188 188.316406 642.730469 187.261719 645.199219 C 186.203125 647.667969 185.851562 650.132812 186.203125 652.953125 C 186.554688 655.597656 187.613281 658.242188 189.375 660.535156 C 191.136719 662.824219 193.253906 664.765625 195.71875 666 C 198.1875 667.234375 200.65625 667.761719 203.300781 667.410156 C 205.945312 667.054688 208.410156 666.175781 210.703125 664.589844 C 212.996094 663.003906 214.582031 661.0625 215.640625 658.59375 Z M 206.824219 659.300781 C 205.414062 660.359375 203.828125 660.886719 202.242188 661.0625 C 200.65625 661.238281 199.070312 661.0625 197.660156 660.359375 C 196.25 659.652344 195.015625 658.773438 193.957031 657.363281 C 192.898438 655.953125 192.371094 654.542969 192.195312 652.953125 C 192.019531 651.367188 192.195312 649.957031 192.898438 648.371094 C 193.605469 646.785156 194.664062 645.726562 196.074219 644.671875 C 197.484375 643.613281 199.070312 643.082031 200.65625 642.90625 C 202.242188 642.730469 203.828125 642.90625 205.238281 643.613281 C 206.648438 644.316406 207.882812 645.199219 208.941406 646.609375 C 210 648.019531 210.527344 649.429688 210.703125 651.015625 C 210.878906 652.601562 210.703125 654.011719 210 655.597656 C 209.292969 657.183594 208.234375 658.242188 206.824219 659.300781 Z M 192.195312 608.710938 L 171.75 610.828125 L 186.90625 597.078125 L 183.910156 590.554688 L 153.769531 593.90625 L 156.414062 599.722656 L 177.742188 597.429688 L 161.878906 611.886719 L 164.34375 617.523438 L 185.496094 615.410156 L 169.808594 629.6875 L 172.628906 636.035156 L 194.839844 615.585938 Z M 155.179688 554.421875 C 156.414062 555.304688 157.648438 555.480469 159.058594 555.304688 C 160.46875 555.128906 161.703125 554.246094 162.40625 553.1875 C 163.289062 551.953125 163.464844 550.71875 163.289062 549.308594 C 163.109375 547.898438 162.40625 546.84375 161.171875 545.960938 C 159.9375 545.078125 158.703125 544.902344 157.292969 545.078125 C 155.882812 545.257812 154.652344 546.136719 153.945312 547.195312 C 153.242188 548.429688 152.886719 549.664062 153.0625 551.074219 C 153.417969 552.484375 154.121094 553.71875 155.179688 554.421875 Z M 155.355469 506.476562 C 155.882812 505.066406 156.414062 503.304688 157.117188 501.191406 C 157.472656 499.78125 157.824219 498.722656 158.175781 497.839844 C 158.527344 496.960938 158.882812 496.253906 159.234375 495.726562 C 159.761719 495.195312 160.292969 495.019531 160.996094 495.019531 C 161.878906 495.019531 162.582031 495.550781 163.289062 496.429688 C 163.816406 497.3125 163.992188 498.722656 163.992188 500.660156 C 163.992188 502.421875 163.640625 504.011719 163.109375 505.773438 C 162.582031 507.535156 161.703125 508.945312 160.820312 510.179688 L 165.753906 512.46875 C 166.8125 511.238281 167.519531 509.472656 168.222656 507.359375 C 168.929688 505.242188 169.28125 503.128906 169.28125 500.835938 C 169.28125 498.191406 168.929688 495.902344 168.222656 494.140625 C 167.519531 492.375 166.460938 490.964844 165.050781 489.910156 C 163.640625 489.027344 162.230469 488.5 160.644531 488.5 C 158.703125 488.5 157.117188 488.851562 156.0625 489.910156 C 155.003906 490.964844 154.121094 492.023438 153.59375 493.433594 C 153.0625 494.84375 152.535156 496.605469 151.832031 498.722656 C 151.300781 500.835938 150.773438 502.421875 150.242188 503.304688 C 149.714844 504.363281 149.011719 504.890625 147.953125 504.714844 C 146.894531 504.714844 146.191406 504.1875 145.660156 503.304688 C 145.132812 502.421875 144.78125 501.011719 144.78125 499.074219 C 144.78125 496.429688 145.660156 493.785156 147.246094 491.140625 L 142.3125 489.027344 C 141.429688 490.261719 140.726562 491.847656 140.371094 493.609375 C 139.84375 495.371094 139.667969 497.136719 139.667969 498.898438 C 139.667969 501.542969 140.019531 503.832031 140.726562 505.597656 C 141.429688 507.359375 142.488281 508.769531 143.898438 509.828125 C 145.308594 510.707031 146.71875 511.238281 148.480469 511.238281 C 150.421875 511.238281 152.007812 510.882812 153.0625 509.828125 C 153.945312 508.945312 154.828125 507.710938 155.355469 506.476562 Z M 171.21875 470.34375 L 159.585938 468.226562 L 161.878906 455.359375 L 173.511719 457.476562 L 174.746094 450.953125 L 146.367188 445.84375 L 145.132812 452.363281 L 156.238281 454.300781 L 153.945312 467.171875 L 142.839844 465.230469 L 141.605469 471.753906 L 169.984375 476.863281 Z M 157.648438 429.625 C 159.234375 431.742188 161.523438 433.152344 164.167969 434.207031 C 166.8125 435.265625 169.457031 435.441406 172.101562 434.914062 C 174.746094 434.382812 177.035156 433.328125 178.976562 431.386719 C 181.089844 429.625 182.5 427.335938 183.558594 424.515625 C 184.617188 421.695312 184.96875 419.050781 184.441406 416.230469 C 184.085938 413.585938 183.03125 411.117188 181.441406 409.179688 C 179.855469 407.0625 177.566406 405.652344 174.921875 404.59375 C 172.277344 403.714844 169.632812 403.363281 166.988281 403.890625 C 164.34375 404.417969 162.054688 405.476562 160.113281 407.414062 C 158.175781 409.179688 156.589844 411.46875 155.53125 414.289062 C 154.472656 417.109375 154.121094 419.753906 154.652344 422.574219 C 155.003906 425.21875 156.0625 427.511719 157.648438 429.625 Z M 160.820312 416.230469 C 161.347656 414.644531 162.230469 413.410156 163.464844 412.351562 C 164.699219 411.292969 166.109375 410.765625 167.695312 410.414062 C 169.28125 410.234375 170.867188 410.414062 172.628906 410.941406 C 174.214844 411.46875 175.625 412.527344 176.683594 413.761719 C 177.742188 414.996094 178.445312 416.40625 178.621094 417.992188 C 178.800781 419.578125 178.800781 421.164062 178.09375 422.75 C 177.566406 424.335938 176.683594 425.570312 175.449219 426.628906 C 174.214844 427.6875 172.804688 428.214844 171.21875 428.566406 C 169.632812 428.742188 168.046875 428.566406 166.285156 428.039062 C 164.699219 427.511719 163.289062 426.453125 162.230469 425.21875 C 161.171875 423.984375 160.46875 422.574219 160.292969 420.988281 C 160.113281 419.402344 160.292969 417.816406 160.820312 416.230469 Z M 197.128906 392.960938 L 190.257812 389.085938 L 193.078125 383.972656 C 194.308594 381.679688 195.015625 379.566406 195.191406 377.625 C 195.367188 375.511719 195.015625 373.75 194.132812 371.988281 C 193.253906 370.398438 191.84375 368.988281 190.078125 367.933594 C 188.140625 366.875 186.378906 366.347656 184.441406 366.523438 C 182.5 366.699219 180.738281 367.226562 179.152344 368.460938 C 177.566406 369.695312 175.980469 371.457031 174.746094 373.574219 L 168.574219 384.324219 L 193.605469 398.601562 Z M 188.140625 381.679688 L 185.496094 386.441406 L 176.859375 381.503906 L 179.503906 376.746094 C 180.5625 374.984375 181.621094 373.925781 182.851562 373.398438 C 184.085938 372.867188 185.496094 373.042969 186.90625 373.925781 C 188.316406 374.628906 189.023438 375.6875 189.375 377.097656 C 189.726562 378.507812 189.199219 379.917969 188.140625 381.679688 Z M 229.5625 347.132812 L 216.871094 335.148438 L 239.433594 336.910156 L 243.136719 333.03125 L 222.511719 312.9375 L 217.929688 317.695312 L 230.621094 329.683594 L 208.058594 327.917969 L 204.179688 331.972656 L 224.980469 351.890625 Z M 270.457031 309.410156 C 271.691406 306.945312 272.042969 304.476562 271.867188 301.832031 C 271.691406 299.1875 270.632812 296.71875 269.046875 294.429688 C 267.460938 292.136719 265.347656 290.550781 262.878906 289.492188 C 260.410156 288.4375 257.941406 288.261719 255.121094 288.613281 C 252.476562 288.964844 249.835938 290.023438 247.542969 291.785156 C 245.25 293.546875 243.3125 295.664062 242.253906 298.128906 C 241.019531 300.597656 240.667969 303.066406 240.84375 305.710938 C 241.019531 308.355469 242.078125 310.820312 243.664062 313.113281 C 245.25 315.40625 247.367188 316.992188 249.835938 318.050781 C 252.300781 319.105469 254.769531 319.460938 257.589844 318.929688 C 260.410156 318.402344 262.878906 317.519531 265.167969 315.757812 C 267.460938 313.996094 269.222656 311.878906 270.457031 309.410156 Z M 261.820312 311.175781 C 260.410156 312.230469 259 312.761719 257.414062 312.9375 C 255.828125 313.113281 254.417969 312.9375 252.832031 312.230469 C 251.421875 311.527344 250.1875 310.46875 249.128906 309.058594 C 248.070312 307.648438 247.367188 306.0625 247.191406 304.476562 C 247.015625 302.890625 247.191406 301.304688 247.894531 299.894531 C 248.601562 298.484375 249.480469 297.25 250.890625 296.191406 C 252.300781 295.132812 253.710938 294.605469 255.296875 294.429688 C 256.886719 294.253906 258.296875 294.429688 259.882812 295.132812 C 261.292969 295.839844 262.527344 296.898438 263.582031 298.308594 C 264.640625 299.71875 265.347656 301.304688 265.523438 302.890625 C 265.699219 304.476562 265.523438 306.0625 264.816406 307.472656 C 264.113281 308.882812 263.054688 310.117188 261.820312 311.175781 Z M 311 288.613281 L 317.519531 285.617188 L 313.820312 255.652344 L 308.003906 258.292969 L 310.46875 279.621094 L 295.839844 263.933594 L 290.199219 266.578125 L 292.667969 287.730469 L 278.214844 272.21875 L 272.042969 275.214844 L 292.667969 297.25 L 299.1875 294.253906 L 296.898438 273.804688 Z M 354.710938 263.757812 C 355.945312 264.640625 357.179688 264.816406 358.589844 264.464844 C 360 264.113281 361.058594 263.40625 361.941406 262.347656 C 362.820312 261.113281 362.996094 259.882812 362.644531 258.472656 C 362.292969 257.0625 361.585938 255.828125 360.53125 255.121094 C 359.472656 254.417969 358.0625 254.0625 356.652344 254.417969 C 355.242188 254.769531 354.183594 255.472656 353.300781 256.53125 C 352.421875 257.765625 352.246094 259 352.597656 260.410156 C 352.773438 261.820312 353.480469 262.878906 354.710938 263.757812 Z M 354.710938 263.757812 " fill-opacity="1" fill-rule="nonzero"/></g></svg>